<svg id="Capa_1" enable-background="new 0 0 512 512" height="512" viewBox="0 0 512 512" width="512" xmlns="http://www.w3.org/2000/svg"><g><path d="m512 318.662v-125.324l-67.953 11.15c-4.294-15.81-10.513-30.874-18.593-45.034l55.199-39.426-88.682-88.682-39.427 55.199c-14.158-8.078-29.226-14.299-45.033-18.593l11.151-67.952h-125.324l11.15 67.953c-15.808 4.293-30.875 10.514-45.033 18.593l-39.427-55.199-88.682 88.682 55.199 39.426c-8.08 14.16-14.299 29.224-18.593 45.034l-67.952-11.151v125.324l67.953-11.15c4.293 15.808 10.514 30.875 18.593 45.034l-55.199 39.426 88.682 88.682 39.427-55.2c14.159 8.08 29.224 14.299 45.033 18.593l-11.151 67.953h125.324l-11.15-67.953c15.81-4.293 30.874-10.513 45.033-18.593l39.427 55.2 88.682-88.682-55.199-39.426c8.079-14.159 14.3-29.225 18.593-45.034zm-77.603 77.138-38.597 38.598-35.504-49.709-12.108 8.173c-18.32 12.367-38.712 20.79-60.606 25.035l-14.307 2.774 10.063 61.329h-54.676l10.063-61.328-14.307-2.774c-21.895-4.245-42.286-12.668-60.606-25.035l-12.108-8.173-35.504 49.708-38.597-38.598 49.709-35.505-8.174-12.108c-12.368-18.321-20.791-38.711-25.035-60.605l-2.773-14.307-61.33 10.063v-54.676l61.329 10.063 2.773-14.307c4.244-21.894 12.667-42.285 25.035-60.605l8.174-12.108-49.708-35.505 38.597-38.598 35.504 49.709 12.108-8.173c18.32-12.367 38.712-20.79 60.606-25.035l14.307-2.774-10.063-61.329h54.676l-10.063 61.328 14.307 2.774c21.895 4.245 42.286 12.668 60.606 25.035l12.108 8.173 35.504-49.708 38.598 38.598-49.709 35.505 8.174 12.108c12.368 18.321 20.791 38.711 25.035 60.605l2.773 14.307 61.329-10.063v54.676l-61.329-10.063-2.773 14.307c-4.244 21.894-12.667 42.285-25.035 60.605l-8.174 12.108z"/><path d="m256 151c-57.897 0-105 47.103-105 105s47.103 105 105 105 105-47.103 105-105-47.103-105-105-105zm0 180c-41.355 0-75-33.645-75-75s33.645-75 75-75 75 33.645 75 75-33.645 75-75 75z"/></g></svg>